<svg width="24" height="24" viewBox="0 0 24 24" fill="none" xmlns="http://www.w3.org/2000/svg">
<path fill-rule="evenodd" clip-rule="evenodd" d="M9.98795 0.630872C10.0855 0.624966 10.1885 0.624982 10.321 0.625002H13.6793C13.8117 0.624982 13.9148 0.624966 14.0123 0.630872C15.2495 0.705799 16.3328 1.48664 16.7952 2.63663C16.8316 2.72726 16.8642 2.82511 16.906 2.95072L16.9096 2.9613C17.0068 3.22308 17.2299 3.52073 17.5423 3.75854C17.5771 3.78501 17.612 3.81 17.6469 3.83353C20.1598 3.83646 21.4715 3.88286 22.3756 4.61848C22.561 4.76938 22.7305 4.9389 22.8814 5.12436C23.6666 6.08931 23.6666 7.51857 23.6666 10.3771C23.6666 11.1024 23.6666 11.4651 23.4907 11.748C23.4564 11.8031 23.4176 11.8553 23.3747 11.9039C23.1542 12.1537 22.8069 12.2579 22.1121 12.4663L16.6666 14.1V13.1667C16.6666 11.878 15.6219 10.8333 14.3333 10.8333H9.66659C8.37792 10.8333 7.33325 11.878 7.33325 13.1667V14.1L1.88772 12.4663C1.19297 12.2579 0.845595 12.1537 0.625166 11.9039C0.582228 11.8553 0.543424 11.8031 0.509158 11.748C0.333252 11.4651 0.333252 11.1024 0.333252 10.3771C0.333252 7.51857 0.333252 6.08931 1.1184 5.12436C1.2693 4.9389 1.43881 4.76938 1.62428 4.61848C2.52837 3.88285 3.84004 3.83646 6.35294 3.83353C6.38787 3.80999 6.4228 3.78498 6.45759 3.7585C6.77008 3.52065 6.99322 3.22298 7.09045 2.96126C7.13474 2.8284 7.16786 2.7293 7.20511 2.63663C7.66742 1.48664 8.75078 0.705799 9.98795 0.630872ZM15.2884 3.62113C15.3166 3.69295 15.3477 3.76373 15.3814 3.83333H8.6186C8.65227 3.76384 8.68332 3.69319 8.7115 3.62149L8.7133 3.61741L8.71816 3.60586L8.72386 3.59171L8.7292 3.57776L8.73344 3.56615L8.73552 3.5603L8.74046 3.54602L8.74493 3.53284L8.74737 3.52553L8.75056 3.5158L8.75317 3.50759L8.75526 3.50085C8.80056 3.36517 8.81535 3.32287 8.82882 3.28938C9.03896 2.76666 9.53139 2.41173 10.0937 2.37767C10.1314 2.37539 10.1775 2.375 10.3448 2.375H13.6555C13.8227 2.375 13.8689 2.37539 13.9065 2.37767C14.4689 2.41173 14.9613 2.76666 15.1714 3.28938C15.1847 3.32238 15.1988 3.36314 15.2447 3.50082L15.2468 3.50749L15.2494 3.51575L15.2526 3.52549L15.2551 3.53279L15.2595 3.54594L15.2645 3.5602L15.2665 3.56604L15.2708 3.57762L15.2761 3.59149L15.2817 3.6055L15.2865 3.6169L15.2884 3.62113ZM14.3333 12.5833H9.66658C9.34442 12.5833 9.08325 12.8445 9.08325 13.1667V15.6884C9.08325 15.9269 9.22847 16.1414 9.44994 16.23L10.2668 16.5567C11.3793 17.0018 12.6205 17.0018 13.7331 16.5567L14.5499 16.23C14.7714 16.1414 14.9166 15.9269 14.9166 15.6884V13.1667C14.9166 12.8445 14.6554 12.5833 14.3333 12.5833ZM7.34581 15.9307L1.50675 14.179C1.54186 17.8125 1.75412 21.1589 3.03749 22.2996C4.57518 23.6665 7.05005 23.6665 11.9998 23.6665C16.9495 23.6665 19.4244 23.6665 20.9621 22.2996C22.2455 21.1589 22.4577 17.8125 22.4928 14.179L16.654 15.9306C16.5651 16.7855 16.01 17.5308 15.1998 17.8548L14.383 18.1816C12.8532 18.7935 11.1466 18.7935 9.61683 18.1816L8.80001 17.8548C7.98985 17.5308 7.43477 16.7855 7.34581 15.9307Z" fill="#FF5313"/>
</svg>
