<svg width="18" height="24" viewBox="0 0 18 24" fill="none" xmlns="http://www.w3.org/2000/svg">
<path d="M17.75 14.3334C17.75 19.1575 13.8253 23.0834 9 23.0834C4.17467 23.0834 0.25 19.1575 0.25 14.3334C0.25 11.7107 0.998995 9.84287 2.75366 8.08704C3.09783 7.7417 3.4875 7.39636 3.89117 7.03936C5.54317 5.57636 7.25 4.06324 7.25 1.4989C7.25 1.28424 7.36901 1.08586 7.55801 0.984356C7.74701 0.882856 7.97684 0.893384 8.15651 1.01355C8.22651 1.06022 14.7342 5.52035 11.3975 13.183C12.1803 12.7455 13.1172 12.028 13.6923 10.9138C14.061 10.1998 14.2488 9.3879 14.2488 8.4989C14.2488 8.26207 14.3923 8.04855 14.6117 7.95872C14.8287 7.86889 15.0818 7.92022 15.2487 8.08939C16.8388 9.70522 17.75 11.9814 17.75 14.3334Z" fill="#FF5313"/>
</svg>
