<svg width="24" height="24" viewBox="0 0 24 24" fill="none" xmlns="http://www.w3.org/2000/svg">
<path d="M8.67861 4.30981C10.1564 1.65885 10.8952 0.333374 11.9999 0.333374C13.1046 0.333374 13.8435 1.65885 15.3212 4.30981L15.7035 4.99565C16.1235 5.74897 16.3334 6.12563 16.6608 6.37415C16.9882 6.62267 17.3959 6.71493 18.2114 6.89943L18.9538 7.06741C21.8234 7.71669 23.2582 8.04133 23.5996 9.13906C23.941 10.2368 22.9628 11.3806 21.0065 13.6683L20.5003 14.2601C19.9444 14.9102 19.6665 15.2353 19.5414 15.6374C19.4164 16.0395 19.4584 16.4732 19.5424 17.3405L19.619 18.1302C19.9147 21.1824 20.0626 22.7085 19.1689 23.387C18.2752 24.0654 16.9318 23.4468 14.245 22.2097L13.5499 21.8897C12.7863 21.5381 12.4046 21.3624 11.9999 21.3624C11.5953 21.3624 11.2135 21.5381 10.45 21.8897L9.75487 22.2097C7.06804 23.4468 5.72462 24.0654 4.83093 23.387C3.93723 22.7085 4.08511 21.1824 4.38088 18.1302L4.4574 17.3405C4.54145 16.4732 4.58347 16.0395 4.45843 15.6374C4.33338 15.2353 4.05542 14.9102 3.49949 14.2601L2.99337 13.6683C1.03704 11.3806 0.0588806 10.2368 0.400243 9.13906C0.741606 8.04133 2.17642 7.71669 5.04604 7.06741L5.78845 6.89943C6.60391 6.71493 7.01164 6.62267 7.33902 6.37415C7.6664 6.12563 7.87637 5.74897 8.2963 4.99565L8.67861 4.30981Z" fill="#FFAB22"/>
</svg>
