<svg width="22" height="24" viewBox="0 0 22 24" fill="none" xmlns="http://www.w3.org/2000/svg">
<path d="M8.08333 0.333374C7.11683 0.333374 6.33333 1.11688 6.33333 2.08337V3.25004C6.33333 4.21654 7.11683 5.00004 8.08333 5.00004H13.9167C14.8832 5.00004 15.6667 4.21654 15.6667 3.25004V2.08337C15.6667 1.11688 14.8832 0.333374 13.9167 0.333374H8.08333Z" fill="#131313"/>
<path fill-rule="evenodd" clip-rule="evenodd" d="M4.58333 2.70943C3.11578 2.79176 2.18931 3.02562 1.52513 3.68981C0.5 4.71493 0.5 6.36485 0.5 9.66468V16.6647C0.5 19.9645 0.5 21.6144 1.52513 22.6396C2.55025 23.6647 4.20017 23.6647 7.5 23.6647H14.5C17.7998 23.6647 19.4497 23.6647 20.4749 22.6396C21.5 21.6144 21.5 19.9645 21.5 16.6647V9.66468C21.5 6.36485 21.5 4.71493 20.4749 3.68981C19.8107 3.02562 18.8842 2.79176 17.4167 2.70943V3.25004C17.4167 5.18304 15.8497 6.75004 13.9167 6.75004H8.08333C6.15034 6.75004 4.58333 5.18304 4.58333 3.25004V2.70943ZM5.16667 14.0417C4.68342 14.0417 4.29167 14.4335 4.29167 14.9167C4.29167 15.4 4.68342 15.7917 5.16667 15.7917H14.5C14.9832 15.7917 15.375 15.4 15.375 14.9167C15.375 14.4335 14.9832 14.0417 14.5 14.0417H5.16667ZM5.16667 18.125C4.68342 18.125 4.29167 18.5168 4.29167 19C4.29167 19.4833 4.68342 19.875 5.16667 19.875H11.5833C12.0666 19.875 12.4583 19.4833 12.4583 19C12.4583 18.5168 12.0666 18.125 11.5833 18.125H5.16667Z" fill="#131313"/>
</svg>
