<svg width="14" height="14" viewBox="0 0 14 14" fill="none" xmlns="http://www.w3.org/2000/svg">
<path d="M13.4583 6.99984C13.4583 7.34484 13.1783 7.62484 12.8333 7.62484H7.62496V12.8332C7.62496 13.1782 7.34496 13.4582 6.99996 13.4582C6.65496 13.4582 6.37496 13.1782 6.37496 12.8332V7.62484H1.16663C0.821626 7.62484 0.541626 7.34484 0.541626 6.99984C0.541626 6.65484 0.821626 6.37484 1.16663 6.37484H6.37496V1.1665C6.37496 0.821504 6.65496 0.541504 6.99996 0.541504C7.34496 0.541504 7.62496 0.821504 7.62496 1.1665V6.37484H12.8333C13.1783 6.37484 13.4583 6.65484 13.4583 6.99984Z" fill="#131313"/>
</svg>
