<svg width="22" height="22" viewBox="0 0 22 22" fill="none" xmlns="http://www.w3.org/2000/svg">
<path d="M21.3017 14.0333C20.2167 13.4033 19.5517 12.2483 19.5517 11C19.5517 9.75167 20.2167 8.59666 21.3017 7.96666C21.4883 7.84999 21.5583 7.61667 21.4417 7.43L19.4933 4.07C19.4233 3.94166 19.295 3.87168 19.1667 3.87168C19.0967 3.87168 19.0266 3.895 18.9683 3.93C18.4317 4.23334 17.825 4.39666 17.2183 4.39666C16.6 4.39666 15.9933 4.23332 15.445 3.91832C14.36 3.28832 13.695 2.145 13.695 0.896662C13.695 0.674996 13.52 0.5 13.31 0.5H8.68999C8.47999 0.5 8.305 0.674996 8.305 0.896662C8.305 2.145 7.64 3.28832 6.555 3.91832C6.00667 4.23332 5.40002 4.39666 4.78168 4.39666C4.17502 4.39666 3.56835 4.23334 3.03168 3.93C2.84502 3.81334 2.61167 3.88333 2.50667 4.07L0.546677 7.43C0.511677 7.48834 0.5 7.55834 0.5 7.61667C0.5 7.75667 0.570016 7.88499 0.698349 7.96666C1.78335 8.59666 2.44835 9.73999 2.44835 10.9883C2.44835 12.2483 1.78332 13.4033 0.709991 14.0333H0.698349C0.511682 14.15 0.441652 14.3833 0.558319 14.57L2.50667 17.93C2.57667 18.0583 2.705 18.1283 2.83333 18.1283C2.90333 18.1283 2.97335 18.105 3.03168 18.07C4.12835 17.4517 5.47 17.4517 6.555 18.0817C7.62834 18.7117 8.29332 19.855 8.29332 21.1033C8.29332 21.325 8.46832 21.5 8.68999 21.5H13.31C13.52 21.5 13.695 21.325 13.695 21.1033C13.695 19.855 14.36 18.7117 15.445 18.0817C15.9933 17.7667 16.6 17.6033 17.2183 17.6033C17.825 17.6033 18.4317 17.7667 18.9683 18.07C19.155 18.1867 19.3883 18.1167 19.4933 17.93L21.4533 14.57C21.4883 14.5117 21.5 14.4417 21.5 14.3833C21.5 14.2433 21.43 14.115 21.3017 14.0333ZM11 14.5C9.06333 14.5 7.5 12.9367 7.5 11C7.5 9.06333 9.06333 7.5 11 7.5C12.9367 7.5 14.5 9.06333 14.5 11C14.5 12.9367 12.9367 14.5 11 14.5Z" fill="#131313"/>
</svg>
