<svg width="16" height="18" viewBox="0 0 16 18" fill="none" xmlns="http://www.w3.org/2000/svg">
<path d="M13.4167 5.04167H11.5417V4.41667C11.5417 2.46333 9.95337 0.875 8.00004 0.875C6.04671 0.875 4.45837 2.46333 4.45837 4.41667V5.04167H2.58337C1.55004 5.04167 0.708374 5.8825 0.708374 6.91667V14C0.708374 16.015 1.81837 17.125 3.83337 17.125H12.1667C14.1817 17.125 15.2917 16.015 15.2917 14V6.91667C15.2917 5.8825 14.45 5.04167 13.4167 5.04167ZM5.70837 4.41667C5.70837 3.1525 6.73587 2.125 8.00004 2.125C9.26421 2.125 10.2917 3.1525 10.2917 4.41667V5.04167H5.70837V4.41667ZM14.0417 14C14.0417 15.3142 13.4809 15.875 12.1667 15.875H3.83337C2.51921 15.875 1.95837 15.3142 1.95837 14V6.91667C1.95837 6.57167 2.23921 6.29167 2.58337 6.29167H4.45837V8.16667C4.45837 8.51167 4.73837 8.79167 5.08337 8.79167C5.42837 8.79167 5.70837 8.51167 5.70837 8.16667V6.29167H10.2917V8.16667C10.2917 8.51167 10.5717 8.79167 10.9167 8.79167C11.2617 8.79167 11.5417 8.51167 11.5417 8.16667V6.29167H13.4167C13.7609 6.29167 14.0417 6.57167 14.0417 6.91667V14Z" fill="white"/>
</svg>
