<svg width="54" height="56" viewBox="0 0 54 56" fill="none" xmlns="http://www.w3.org/2000/svg">
<g filter="url(#filter0_bii_509_490)">
<ellipse cx="35.6786" cy="19.75" rx="8.67857" ry="9.25" fill="#FF5313"/>
<g filter="url(#filter1_bii_509_490)">
<path d="M29.1645 10.724L33.534 19.8637C33.8625 20.552 34.497 21.028 35.2328 21.1377L45.3193 22.6496C47.1688 22.9273 47.9069 25.2793 46.5682 26.628L39.276 33.9663C38.7427 34.503 38.4996 35.2753 38.6256 36.0336L40.2928 46.0763C40.6303 48.1133 38.5671 49.6673 36.7986 48.7083L28.0507 43.9601C27.3937 43.6031 26.6106 43.6031 25.9559 43.9601L17.2146 48.7036C15.4439 49.665 13.3738 48.1086 13.7136 46.0669L15.381 36.0336C15.507 35.2753 15.2639 34.503 14.7306 33.9663L7.43844 26.628C6.09744 25.2793 6.83529 22.9273 8.68704 22.6496L18.7739 21.1377C19.5074 21.028 20.1419 20.552 20.4726 19.8637L24.8422 10.724C25.7219 8.86901 28.278 8.86901 29.1645 10.724Z" fill="#FFC0A9" fill-opacity="0.37"/>
</g>
</g>
<defs>
<filter id="filter0_bii_509_490" x="-20.2076" y="-20.2076" width="94.4153" height="96.4153" filterUnits="userSpaceOnUse" color-interpolation-filters="sRGB">
<feFlood flood-opacity="0" result="BackgroundImageFix"/>
<feGaussianBlur in="BackgroundImageFix" stdDeviation="10.1038"/>
<feComposite in2="SourceAlpha" operator="in" result="effect1_backgroundBlur_509_490"/>
<feBlend mode="normal" in="SourceGraphic" in2="effect1_backgroundBlur_509_490" result="shape"/>
<feColorMatrix in="SourceAlpha" type="matrix" values="0 0 0 0 0 0 0 0 0 0 0 0 0 0 0 0 0 0 127 0" result="hardAlpha"/>
<feOffset dy="0.939891"/>
<feGaussianBlur stdDeviation="0.469945"/>
<feComposite in2="hardAlpha" operator="arithmetic" k2="-1" k3="1"/>
<feColorMatrix type="matrix" values="0 0 0 0 1 0 0 0 0 1 0 0 0 0 1 0 0 0 0.15 0"/>
<feBlend mode="normal" in2="shape" result="effect2_innerShadow_509_490"/>
<feColorMatrix in="SourceAlpha" type="matrix" values="0 0 0 0 0 0 0 0 0 0 0 0 0 0 0 0 0 0 127 0" result="hardAlpha"/>
<feOffset/>
<feGaussianBlur stdDeviation="7.98907"/>
<feComposite in2="hardAlpha" operator="arithmetic" k2="-1" k3="1"/>
<feColorMatrix type="matrix" values="0 0 0 0 1 0 0 0 0 1 0 0 0 0 1 0 0 0 0.05 0"/>
<feBlend mode="normal" in2="effect2_innerShadow_509_490" result="effect3_innerShadow_509_490"/>
</filter>
<filter id="filter1_bii_509_490" x="-13.4547" y="-10.8749" width="80.9143" height="80.0814" filterUnits="userSpaceOnUse" color-interpolation-filters="sRGB">
<feFlood flood-opacity="0" result="BackgroundImageFix"/>
<feGaussianBlur in="BackgroundImageFix" stdDeviation="10.1038"/>
<feComposite in2="SourceAlpha" operator="in" result="effect1_backgroundBlur_509_490"/>
<feBlend mode="normal" in="SourceGraphic" in2="effect1_backgroundBlur_509_490" result="shape"/>
<feColorMatrix in="SourceAlpha" type="matrix" values="0 0 0 0 0 0 0 0 0 0 0 0 0 0 0 0 0 0 127 0" result="hardAlpha"/>
<feOffset dy="0.939891"/>
<feGaussianBlur stdDeviation="0.469945"/>
<feComposite in2="hardAlpha" operator="arithmetic" k2="-1" k3="1"/>
<feColorMatrix type="matrix" values="0 0 0 0 1 0 0 0 0 1 0 0 0 0 1 0 0 0 0.15 0"/>
<feBlend mode="normal" in2="shape" result="effect2_innerShadow_509_490"/>
<feColorMatrix in="SourceAlpha" type="matrix" values="0 0 0 0 0 0 0 0 0 0 0 0 0 0 0 0 0 0 127 0" result="hardAlpha"/>
<feOffset/>
<feGaussianBlur stdDeviation="7.98907"/>
<feComposite in2="hardAlpha" operator="arithmetic" k2="-1" k3="1"/>
<feColorMatrix type="matrix" values="0 0 0 0 1 0 0 0 0 1 0 0 0 0 1 0 0 0 0.05 0"/>
<feBlend mode="normal" in2="effect2_innerShadow_509_490" result="effect3_innerShadow_509_490"/>
</filter>
</defs>
</svg>
