<svg width="18" height="15" viewBox="0 0 18 15" fill="none" xmlns="http://www.w3.org/2000/svg">
<path fill-rule="evenodd" clip-rule="evenodd" d="M15.4809 0.691638C15.6868 0.604963 15.9122 0.57507 16.1336 0.605069C16.355 0.635067 16.5643 0.723861 16.7398 0.862209C16.9152 1.00056 17.0504 1.1834 17.1312 1.39171C17.212 1.60001 17.2355 1.82617 17.1992 2.04664L15.3092 13.5108C15.1259 14.6166 13.9125 15.2508 12.8984 14.7C12.05 14.2391 10.79 13.5291 9.6567 12.7883C9.09004 12.4175 7.3542 11.23 7.56754 10.385C7.75087 9.66247 10.6675 6.94747 12.3342 5.3333C12.9884 4.69914 12.69 4.3333 11.9175 4.91664C9.9992 6.36497 6.9192 8.56747 5.90087 9.18747C5.00254 9.73414 4.5342 9.82747 3.9742 9.73414C2.95254 9.56414 2.00504 9.30081 1.2317 8.97997C0.186703 8.54664 0.237537 7.10997 1.23087 6.69164L15.4809 0.691638Z" fill="#131313"/>
</svg>
