<svg width="18" height="14" viewBox="0 0 18 14" fill="none" xmlns="http://www.w3.org/2000/svg">
<path fill-rule="evenodd" clip-rule="evenodd" d="M8.99996 0.333313C9.71246 0.333313 10.4433 0.351646 11.1516 0.381646L11.9883 0.421646L12.7891 0.469146L13.5391 0.51998L14.2241 0.573313C14.9676 0.629889 15.6673 0.947008 16.1999 1.46881C16.7326 1.99062 17.064 2.68364 17.1358 3.42581L17.1691 3.77998L17.2316 4.53831C17.29 5.32415 17.3333 6.18081 17.3333 6.99998C17.3333 7.81915 17.29 8.67581 17.2316 9.46165L17.1691 10.22L17.1358 10.5741C17.0639 11.3164 16.7324 12.0096 16.1996 12.5314C15.6668 13.0532 14.9669 13.3703 14.2233 13.4266L13.54 13.4791L12.79 13.5308L11.9883 13.5783L11.1516 13.6183C10.4348 13.6494 9.71744 13.6655 8.99996 13.6666C8.28248 13.6655 7.5651 13.6494 6.84829 13.6183L6.01163 13.5783L5.21079 13.5308L4.46079 13.4791L3.77579 13.4266C3.0323 13.3701 2.33263 13.053 1.8 12.5311C1.26737 12.0093 0.935952 11.3163 0.864126 10.5741L0.830793 10.22L0.768293 9.46165C0.70482 8.64258 0.670909 7.82149 0.666626 6.99998C0.666626 6.18081 0.709959 5.32415 0.768293 4.53831L0.830793 3.77998L0.864126 3.42581C0.935924 2.68377 1.26722 1.99086 1.79968 1.46907C2.33214 0.947279 3.03162 0.630077 3.77496 0.573313L4.45913 0.51998L5.20913 0.469146L6.01079 0.421646L6.84746 0.381646C7.56455 0.350586 8.2822 0.334471 8.99996 0.333313ZM7.33329 4.97915V9.02081C7.33329 9.40581 7.74996 9.64581 8.08329 9.45415L11.5833 7.43331C11.6595 7.38947 11.7227 7.32633 11.7667 7.25026C11.8107 7.17418 11.8338 7.08786 11.8338 6.99998C11.8338 6.9121 11.8107 6.82578 11.7667 6.7497C11.7227 6.67363 11.6595 6.61049 11.5833 6.56665L8.08329 4.54665C8.00726 4.50275 7.92101 4.47965 7.83321 4.47966C7.74542 4.47967 7.65917 4.5028 7.58315 4.54673C7.50713 4.59065 7.44402 4.65381 7.40016 4.72987C7.3563 4.80592 7.33324 4.89218 7.33329 4.97998V4.97915Z" fill="#131313"/>
</svg>
