<svg width="92" height="43" viewBox="0 0 92 43" fill="none" xmlns="http://www.w3.org/2000/svg">
<g clip-path="url(#clip0_774_12)">
<path d="M60.6892 15.9191C60.0108 18.6992 58.8801 21.7471 57.8727 23.477L57.297 23.1475C58.2838 21.4588 59.3735 18.4933 60.0519 15.7543C60.5042 13.9009 61.1209 7.7433 58.1194 3.91284C56.4336 1.77107 53.9049 0.679598 50.5538 0.679598C43.9133 0.679598 37.9102 4.63362 34.0452 7.94923C30.9408 10.6058 28.6999 13.283 27.6926 14.5393C27.1992 14.6834 26.5824 14.8688 26.5824 14.8688C26.603 14.8276 29.3167 11.1001 33.5929 7.43439C37.5402 4.05699 43.7078 0 50.5332 0C54.0899 0 56.8242 1.17385 58.6333 3.48036C61.8199 7.55795 61.2032 13.8391 60.6892 15.9191Z" fill="#131313"/>
<path d="M55.6317 27.431C54.9738 28.2754 51.6844 32.4353 48.0866 35.545C44.1394 38.943 37.9718 43 31.1257 43C27.5691 43 24.8554 41.8467 23.0256 39.5814C19.9213 35.7303 20.353 29.7993 20.7847 27.8429L20.8053 27.7399C21.0314 26.6896 21.2987 25.4952 22.1211 23.7241L22.7173 24.0124C21.9155 25.7217 21.6688 26.875 21.4426 27.8841L21.4221 27.9871C21.052 29.7375 20.6203 35.5244 23.5396 39.1695C25.2254 41.2701 27.7747 42.341 31.1052 42.341C37.7456 42.341 43.7488 38.387 47.6138 35.0713C51.376 31.8381 54.3982 27.8841 55.0355 27.0397C55.2411 27.1633 55.4261 27.3075 55.6317 27.431Z" fill="#131313"/>
<path d="M61.6144 15.0747C56.9681 15.0747 53.1853 17.9373 53.1853 21.5C53.1853 25.0627 56.9475 27.9253 61.6144 27.9253C66.2606 27.9253 70.0434 25.0627 70.0434 21.5C70.0434 17.9373 66.2606 15.0747 61.6144 15.0747ZM66.8363 25.7217C65.4999 27.3692 62.0872 26.8338 59.1884 24.4861C56.2897 22.159 55.0356 18.9258 56.3719 17.2577C57.7082 15.6101 61.1209 16.1456 64.0197 18.4933C66.8979 20.841 68.1726 24.0742 66.8363 25.7217Z" fill="#131313"/>
<path d="M55.4878 15.0747C55.4878 16.1044 54.2543 16.9282 52.7535 16.9282C52.1984 16.9282 50.6359 16.681 49.0324 16.4133C48.3539 16.3103 47.696 16.1868 47.0793 16.0838C46.5036 15.9808 45.8869 16.1662 45.4757 16.5781C45.2496 16.8046 45.1057 17.1135 45.1057 17.4636V27.9459H41.179V18.1226C41.179 17.8343 41.3023 17.5666 41.5079 17.3606L43.4404 15.4866C43.6871 15.2395 44.0366 15.1159 44.3861 15.1159L55.4878 15.0747Z" fill="#131313"/>
<path d="M34.9292 15.5278C33.9218 15.2806 32.8528 15.0747 31.722 15.0747C26.0067 15.0747 21.3605 17.9373 21.3605 21.5C21.3605 21.8089 21.4016 22.1384 21.4633 22.4267C22.1828 25.5364 26.5001 27.9047 31.722 27.9047C33.9218 27.9047 35.9777 27.4722 37.6429 26.7514C37.6635 26.7308 37.7046 26.7308 37.7252 26.7102C37.9102 26.6073 37.9719 26.3807 37.8896 26.1954C37.7868 25.9895 37.5607 25.9071 37.3757 25.9895C37.3551 26.0101 37.3551 26.0101 37.3346 26.0101C35.7927 26.7514 33.8396 27.2045 31.722 27.1839C31.5987 27.1839 31.2492 27.1633 31.2286 27.1633C27.3019 27.1015 25.1021 24.898 24.8966 22.4061C24.8966 22.4061 31.7015 22.4061 33.9835 22.4061C35.5665 22.4061 37.3757 21.6236 38.2802 20.5527C38.6092 20.1408 38.8353 19.7083 38.8559 19.2347C38.9176 17.7725 37.1906 16.0838 34.9292 15.5278ZM32.6266 21.1705C32.4827 21.1911 32.3799 21.1911 32.2566 21.1911H24.8143C24.9994 18.205 27.857 15.7749 31.4137 15.7543C32.1743 15.7543 32.5855 15.8573 32.9556 15.9602C33.9835 16.2486 34.7853 16.9899 34.9292 18.1226C35.1348 19.6054 34.1068 20.9646 32.6266 21.1705Z" fill="#131313"/>
<path d="M19.5513 21.4382C21.0726 18.5757 18.9962 15.0953 15.7479 15.0953H11.0811L13.8565 9.84387H5.92089L7.81229 10.1116C8.5524 10.2146 8.96358 11.0383 8.61408 11.6767L0 27.9253H4.2762L10.5672 16.0426H12.253C15.8713 16.0426 17.701 18.4727 15.6451 22.056C15.6451 22.056 14.8845 23.477 14.6583 23.9507C13.3015 26.5043 14.9256 27.9253 14.9256 27.9253H19.4279C19.4279 27.9253 17.1048 26.0307 18.1944 23.9507C18.5439 23.3329 19.5513 21.4382 19.5513 21.4382Z" fill="#131313"/>
<path d="M91.8972 10.2558L90.0264 11.6561C88.8134 12.5623 87.3538 13.0565 85.8324 13.0565H77.7117C77.2389 13.0565 76.8072 13.3242 76.581 13.7361L76.1904 14.4569L75.9231 14.9718C75.9026 15.0129 75.9231 15.0541 75.9848 15.0541H82.3169C86.0997 15.0541 87.7444 16.8664 88.0939 18.967C88.2172 19.7495 88.0733 20.9028 87.6416 21.7265C87.1687 22.6739 85.7502 24.9804 82.5841 26.5249C81.7618 26.9368 80.261 27.5546 78.8425 27.7811C78.164 27.8841 77.5678 27.8841 77.1772 27.8841L68.5015 27.8635C68.5015 26.8338 69.735 26.0101 71.2358 26.0101C71.7086 26.0101 72.4282 26.113 73.6 26.4425C74.2784 26.6485 75.0597 26.875 75.4503 26.978C76.6221 27.2663 77.6912 27.081 78.0612 26.978C78.9247 26.7515 80.076 26.2778 80.9395 25.7012C82.5225 24.6715 83.3859 23.5388 83.9616 21.9943C84.6606 20.0584 84.27 18.102 82.9542 16.9488C82.2552 16.331 81.6179 15.9809 80.1788 15.9603H74.9569C74.7924 15.9603 74.6896 15.7955 74.7719 15.6514L77.3006 10.8942C77.6706 10.2146 78.3696 9.7821 79.1508 9.7821H91.7327C91.9795 9.84389 92.0822 10.1322 91.8972 10.2558Z" fill="#131313"/>
</g>
<defs>
<clipPath id="clip0_774_12">
<rect width="92" height="43" fill="white"/>
</clipPath>
</defs>
</svg>
