<svg width="479" height="218" viewBox="0 0 479 218" fill="none" xmlns="http://www.w3.org/2000/svg">
<g clip-path="url(#clip0_509_421)">
<path d="M315.488 80.706C311.962 94.8008 306.083 110.253 300.847 119.023L297.854 117.353C302.984 108.791 308.648 93.7567 312.175 79.8707C314.526 70.4742 317.733 39.2567 302.129 19.8372C293.366 8.97893 280.22 3.4454 262.8 3.4454C228.28 3.4454 197.073 23.4914 176.981 40.3008C160.843 53.7692 149.194 67.342 143.958 73.7107C141.393 74.4416 138.186 75.3812 138.186 75.3812C138.293 75.1724 152.4 56.2749 174.63 37.6906C195.15 20.568 227.211 0 262.693 0C281.182 0 295.396 5.95115 304.801 17.6446C321.366 38.3171 318.16 70.1609 315.488 80.706Z" fill="#fff"/>
<path d="M289.197 139.069C285.778 143.35 268.678 164.44 249.975 180.205C229.456 197.432 197.394 218 161.805 218C143.316 218 129.209 212.153 119.697 200.669C103.559 181.145 105.804 151.076 108.048 141.157L108.155 140.635C109.331 135.31 110.72 129.255 114.995 120.276L118.094 121.738C113.926 130.403 112.644 136.25 111.468 141.366L111.361 141.888C109.437 150.763 107.193 180.101 122.369 198.581C131.133 209.23 144.385 214.659 161.698 214.659C196.218 214.659 227.425 194.613 247.517 177.804C267.075 161.412 282.785 141.366 286.098 137.085C287.167 137.712 288.129 138.443 289.197 139.069Z" fill="#fff"/>
<path d="M320.298 76.4253C296.145 76.4253 276.48 90.9378 276.48 109C276.48 127.062 296.038 141.575 320.298 141.575C344.452 141.575 364.116 127.062 364.116 109C364.116 90.9378 344.452 76.4253 320.298 76.4253ZM347.444 130.403C340.497 138.756 322.756 136.041 307.687 124.139C292.618 112.341 286.099 95.9493 293.046 87.4924C299.992 79.1399 317.733 81.8544 332.802 93.7567C347.765 105.659 354.391 122.051 347.444 130.403Z" fill="#fff"/>
<path d="M288.45 76.4253C288.45 81.6456 282.037 85.8219 274.236 85.8219C271.35 85.8219 263.228 84.569 254.892 83.2117C251.365 82.6897 247.945 82.0633 244.739 81.5412C241.746 81.0192 238.54 81.9589 236.403 84.047C235.227 85.1954 234.479 86.7615 234.479 88.5364V141.679H214.066V91.8774C214.066 90.4157 214.707 89.0585 215.776 88.0144L225.822 78.5134C227.105 77.2606 228.921 76.6341 230.738 76.6341L288.45 76.4253Z" fill="#fff"/>
<path d="M181.577 78.7223C176.34 77.4694 170.783 76.4253 164.905 76.4253C135.194 76.4253 111.041 90.9378 111.041 109C111.041 110.566 111.255 112.237 111.575 113.698C115.316 129.464 137.759 141.47 164.905 141.47C176.34 141.47 187.028 139.278 195.684 135.624C195.791 135.519 196.005 135.519 196.112 135.415C197.074 134.893 197.394 133.744 196.967 132.805C196.432 131.761 195.257 131.343 194.295 131.761C194.188 131.865 194.188 131.865 194.081 131.865C186.066 135.624 175.913 137.921 164.905 137.816C164.264 137.816 162.447 137.712 162.34 137.712C141.927 137.398 130.492 126.227 129.423 113.594C129.423 113.594 164.798 113.594 176.661 113.594C184.89 113.594 194.295 109.626 198.997 104.197C200.707 102.109 201.883 99.9167 201.99 97.5154C202.31 90.1025 193.333 81.5412 181.577 78.7223ZM169.607 107.33C168.859 107.434 168.325 107.434 167.684 107.434H128.996C129.957 92.2951 144.813 79.9751 163.302 79.8707C167.256 79.8707 169.394 80.3928 171.317 80.9148C176.661 82.3765 180.829 86.1351 181.577 91.8774C182.646 99.3947 177.302 106.285 169.607 107.33Z" fill="#fff"/>
<path d="M101.636 108.687C109.545 94.1743 98.7504 76.5296 81.8645 76.5296H57.6044L72.0322 49.9061H30.7793L40.6116 51.2633C44.4591 51.7854 46.5965 55.9616 44.7797 59.1982L0 141.575H22.2295L54.9326 81.3323H63.6962C82.5058 81.3323 92.0174 93.6522 81.3302 111.819C81.3302 111.819 77.3759 119.023 76.2003 121.424C69.1467 134.371 77.5896 141.575 77.5896 141.575H100.995C100.995 141.575 88.9181 131.969 94.5824 121.424C96.3992 118.292 101.636 108.687 101.636 108.687Z" fill="#fff"/>
<path d="M477.721 51.9943L467.995 59.0939C461.69 63.6878 454.102 66.1935 446.193 66.1935H403.978C401.52 66.1935 399.276 67.5508 398.1 69.6389L396.07 73.2931L394.681 75.9033C394.574 76.1121 394.681 76.3209 395.001 76.3209H427.918C447.583 76.3209 456.132 85.5087 457.949 96.1581C458.59 100.126 457.842 105.972 455.598 110.149C453.14 114.951 445.766 126.645 429.307 134.475C425.032 136.563 417.231 139.695 409.856 140.844C406.33 141.366 403.23 141.366 401.2 141.366L356.099 141.262C356.099 136.041 362.512 131.865 370.314 131.865C372.772 131.865 376.512 132.387 382.604 134.058C386.131 135.102 390.192 136.25 392.222 136.772C398.314 138.234 403.872 137.294 405.795 136.772C410.284 135.624 416.269 133.222 420.757 130.299C428.987 125.079 433.475 119.336 436.468 111.506C440.101 101.692 438.071 91.773 431.231 85.9263C427.597 82.7941 424.284 81.0192 416.803 80.9148H389.658C388.803 80.9148 388.268 80.0795 388.696 79.3487L401.841 55.2309C403.765 51.7855 407.398 49.593 411.46 49.593H476.866C478.148 49.9062 478.683 51.3679 477.721 51.9943Z" fill="#fff"/>
</g>
<defs>
<clipPath id="clip0_509_421">
<rect width="478.256" height="218" fill="white"/>
</clipPath>
</defs>
</svg>
